{"title":"45.Years.2015.BRRip.720p.x264.AAC-PRiSTiNE [P2PDL]","uid":13128318,"size":695292786,"categoryP":"video","categoryS":"hd___movies","magnet":"?xt=urn:btih:cb76c94bc9abbee625fe553e152351674f2558e0&amp;dn=45.Years.2015.BRRip.720p.x264.AAC-PRiSTiNE+%5BP2PDL%5D&amp;tr=udp%3A%2F%2Ftracker.leechers-paradise.org%3A6969&amp;tr=udp%3A%2F%2Fzer0day.ch%3A1337&amp;tr=udp%3A%2F%2Fopen.demonii.com%3A1337&amp;tr=udp%3A%2F%2Ftracker.coppersurfer.tk%3A6969&amp;tr=udp%3A%2F%2Fexodus.desync.com%3A6969","seeders":0,"leechers":1,"uploader":"VYTOP2PDL","files":7,"time":1451812393,"description":"____    ____ ____    ____ .___________.  ______   \r\n     /   /      /   / |           | /  __    \r\n    /   /      /   /  `---|  |----`|  |  |  | \r\n        /     _    _/       |  |     |  |  |  | \r\n       /        |  |         |  |     |  `--'  | \r\n    __/         |__|         |__|      ______/  \r\n                                                  \r\nPresenting Small Encodes with quality for years!\r\n                                                                                                   \r\n                                                                                                   \r\n\r\n45.Years.2015.BRRip.720p.x264.AAC-PRiSTiNE\r\n\r\n\r\nGenre: Drama, Romance \nhttp://www.imdb.com/title/tt3544082/\r\n\r\n\r\nFormat                                   : MPEG-4\r\nFile size                                : 651 MiB\r\nDuration                                 : 1h 35mn\r\nOverall bit rate                         : 956 Kbps\r\n\r\nVideo\r\nFormat                                   : AVC\r\nBit rate                                 : 873 Kbps\r\nWidth                                    : 1 280 pixels\r\nHeight                                   : 688 pixels\r\nDisplay aspect ratio                     : 1.85:1\r\nFrame rate mode                          : Constant\r\nFrame rate                               : 23.976 fps\r\nBit depth                                : 8 bits\r\nStream size                              : 594 MiB (91%)\r\nWriting library                          : x264 \r\n\r\nAudio\r\nFormat                                   : AAC\r\nBit rate mode                            : Variable\r\nBit rate                                 : 79.6 Kbps\r\nChannel(s)                               : 2 channels\r\nChannel positions                        : Front: L R\r\nSampling rate                            : 48.0 KHz \r\nStream size                              : 54.2 MiB (8%)\r\nLanguage                                 : English\r\n\r\nSubtitle                                 : Yes (English)\r\n\r\nScreen Shots: (Click to view)\r\n \nhttp://ititli.com/viewimage/cM \nhttp://ititli.com/viewimage/cH \nhttp://ititli.com/viewimage/cG \nhttp://ititli.com/viewimage/co \nhttp://ititli.com/viewimage/ck \nhttp://ititli.com/viewimage/cj \nhttp://ititli.com/viewimage/ce \nhttp://ititli.com/viewimage/c8 \nhttp://ititli.com/viewimage/c6\r\n\r\n----------------------------------------------------------------------------------------------------\r\n\r\n\r\nEncoder Notes: Looking For Early Access To Anything You Can Provide WEBDL, DVDScr, DVDR, BluRay,\r\nDirect Audio, Music Releases and Seedboxes. If You Got anything to offer please contact us.\r\n\r\nSupport us by donating BC - 1FgwdzPsd1y25Gea8wP1qni35uGCtmkRCD\r\n\r\nSend some love!\r\nFind us and join us!","torrent":{"xt":"urn:btih:cb76c94bc9abbee625fe553e152351674f2558e0","amp;dn":"45.Years.2015.BRRip.720p.x264.AAC-PRiSTiNE+%5BP2PDL%5D","amp;tr":["udp%3A%2F%2Ftracker.leechers-paradise.org%3A6969","udp%3A%2F%2Fzer0day.ch%3A1337","udp%3A%2F%2Fopen.demonii.com%3A1337","udp%3A%2F%2Ftracker.coppersurfer.tk%3A6969","udp%3A%2F%2Fexodus.desync.com%3A6969"],"infoHash":"cb76c94bc9abbee625fe553e152351674f2558e0","infoHashBuffer":{"type":"Buffer","data":[203,118,201,75,201,171,190,230,37,254,85,62,21,35,81,103,79,37,88,224]},"announce":[],"urlList":[]}}